<svg xmlns="http://www.w3.org/2000/svg" width="1215.86" height="373"><defs><style>.\37 c77eb9e-0f66-4f32-8dcf-f420d0408239{fill:#00a0b3;}.\30 8b4f7b2-e086-4ef8-b8e3-b7afea645971{fill:#52c8e8;}</style></defs><title>AHS-final-logo</title><path d="M465.52 87.23h-40.74l-9.15 25.44H402.4l37.14-97.23h11.22L488 112.67h-13.2zm-36.86-10.5h33.06l-16.57-45.46zM512.53 112.67h-12.35V10.1h12.35zM545.73 112.67h-12.36V10.1h12.35zM435.63 323.42q-14.58-4.2-21.22-10.3A19.68 19.68 0 0 1 407.8 298a20.78 20.78 0 0 1 8.12-16.8q8.1-6.63 21.1-6.63a35.22 35.22 0 0 1 15.78 3.43 26 26 0 0 1 10.74 9.44 24.14 24.14 0 0 1 3.8 13.16h-11.4q0-7.82-5-12.3t-14-4.46q-8.37 0-13.06 3.7a12.33 12.33 0 0 0-4.7 10.26 11.1 11.1 0 0 0 4.47 8.9q4.46 3.64 15.17 6.65t16.8 6.65a25.45 25.45 0 0 1 9 8.47 21.62 21.62 0 0 1 2.93 11.4 20.08 20.08 0 0 1-8.14 16.72q-8.15 6.28-21.8 6.28a40.4 40.4 0 0 1-16.5-3.4 27.8 27.8 0 0 1-11.84-9.3 22.68 22.68 0 0 1-4.16-13.4h11.4a14.8 14.8 0 0 0 5.74 12.3q5.76 4.53 15.37 4.53 9 0 13.76-3.65a11.88 11.88 0 0 0 4.78-10q0-6.3-4.42-9.77t-16.1-6.76zM505.92 354a15.72 15.72 0 0 0 10.2-3.54 12.46 12.46 0 0 0 4.88-8.86h10.3a19.8 19.8 0 0 1-3.78 10.4 24.87 24.87 0 0 1-9.3 7.9 26.83 26.83 0 0 1-12.3 3q-13 0-20.73-8.7t-7.7-23.8v-1.84a38.43 38.43 0 0 1 3.4-16.56 26.05 26.05 0 0 1 9.83-11.27 27.9 27.9 0 0 1 15.14-4q10.74 0 17.85 6.43a23 23 0 0 1 7.58 16.7H521a15 15 0 0 0-4.7-10.18 14.6 14.6 0 0 0-10.4-4q-8.33 0-12.9 6T488.4 329v2q0 11 4.53 17t13 6zM554.5 305.6a23.2 23.2 0 0 1 18.87-8.9q20.24 0 20.42 22.83v42.2h-10.92v-42.26q-.06-6.9-3.16-10.2t-9.65-3.3a15.76 15.76 0 0 0-9.32 2.82 19.23 19.23 0 0 0-6.25 7.43v45.5h-10.93v-90.65h10.92zM607.25 329.2a37.7 37.7 0 0 1 3.7-16.87 27.52 27.52 0 0 1 10.26-11.57 28 28 0 0 1 15-4.07q13 0 21.1 9t8.07 24v.76a38 38 0 0 1-3.57 16.73 27.12 27.12 0 0 1-10.2 11.53 28.27 28.27 0 0 1-15.27 4.13q-13 0-21-9T607.25 330zm11 1.3q0 10.63 4.93 17.07a16.7 16.7 0 0 0 26.4-.1q4.9-6.5 4.9-18.26 0-10.5-5-17a15.86 15.86 0 0 0-13.24-6.5 15.68 15.68 0 0 0-13 6.42q-5 6.4-5 18.38zM676.18 329.2a37.7 37.7 0 0 1 3.7-16.87 27.52 27.52 0 0 1 10.26-11.57 28 28 0 0 1 15-4.07q13 0 21.1 9t8.06 24v.76a38 38 0 0 1-3.57 16.73 27.12 27.12 0 0 1-10.2 11.53 28.27 28.27 0 0 1-15.27 4.13q-13 0-21-9T676.18 330zm11 1.3q0 10.63 4.93 17.07a16.7 16.7 0 0 0 26.42-.1q4.9-6.5 4.9-18.26 0-10.5-5-17a15.86 15.86 0 0 0-13.25-6.5 15.68 15.68 0 0 0-13 6.42q-5 6.4-5 18.38zM759.87 361.72h-10.92v-90.64h10.92zM814.5 344.8a8 8 0 0 0-3.33-6.9q-3.33-2.44-11.63-4.2a55 55 0 0 1-13.16-4.26 18.72 18.72 0 0 1-7.2-5.9 14.1 14.1 0 0 1-2.33-8.14q0-7.85 6.64-13.28t17-5.43q10.85 0 17.6 5.6a17.8 17.8 0 0 1 6.77 14.34h-11a9.86 9.86 0 0 0-3.8-7.73 14.27 14.27 0 0 0-9.6-3.24q-6 0-9.32 2.6a8.18 8.18 0 0 0-3.36 6.8 6.62 6.62 0 0 0 3.12 6q3.13 2 11.3 3.83a58.9 58.9 0 0 1 13.25 4.36 19.34 19.34 0 0 1 7.52 6.1 15 15 0 0 1 2.44 8.7 16.34 16.34 0 0 1-6.85 13.73q-6.86 5.16-17.77 5.15a32.14 32.14 0 0 1-13.57-2.72 22.07 22.07 0 0 1-9.24-7.58 18.28 18.28 0 0 1-3.33-10.54h10.9a11.3 11.3 0 0 0 4.4 8.72q4.1 3.22 10.83 3.22 6.2 0 9.94-2.5a7.7 7.7 0 0 0 3.74-6.75zM464.36 223H431.6l-5.72 18.52h-25.54l36.36-99.15h22.47l36.64 99.15h-25.66zm-27-18.45h21.3L448 170.15zM526.2 241.5h-23V136.9h23zM564.53 241.5h-23V136.9h23zM578.5 148.74a10.34 10.34 0 0 1 3.53-8.08 15 15 0 0 1 18.4 0 11 11 0 0 1 0 16.17 15 15 0 0 1-18.4 0 10.33 10.33 0 0 1-3.54-8.1zm24.37 92.75h-23v-73.7h23zM652.65 242.85q-17 0-27.44-10.1t-10.48-26.33v-1.9a45.26 45.26 0 0 1 4.2-20 30.65 30.65 0 0 1 12.2-13.4q8-4.72 19.08-4.72 15.53 0 24.52 9.64t9 26.86v8.92h-45.65a16.53 16.53 0 0 0 5.38 9.74 16 16 0 0 0 10.76 3.54q10.9 0 17-7.63l10.5 12.4a29.3 29.3 0 0 1-12.15 9.42 41.1 41.1 0 0 1-16.9 3.55zm-2.6-58.7q-10.07 0-12 13.35h23.16v-1.77q.15-5.52-2.78-8.55t-8.36-3.03zM690 204.1q0-17.5 7.56-27.58t21.1-10.08a21.16 21.16 0 0 1 16.63 7.76v-37.3h23v104.6h-20.6l-1.16-7.9q-7.08 9.25-18 9.25-13.14 0-20.84-10.08T690 204.1zm23 1.43q0 19.6 11.44 19.6 7.62 0 10.9-6.4V190.7q-3.13-6.55-10.76-6.55-10.62 0-11.5 17.16zM890 241.5h-23.73v-41.4h-35.2v41.4h-23.9v-99.17h23.9v39.37h35.2v-39.37H890zM939.75 242.85q-17 0-27.44-10.1t-10.48-26.33v-1.9a45.26 45.26 0 0 1 4.2-20 30.65 30.65 0 0 1 12.2-13.4q8-4.72 19.08-4.72 15.53 0 24.52 9.64t9 26.86v8.92h-45.64a16.53 16.53 0 0 0 5.38 9.74 16 16 0 0 0 10.76 3.54q10.9 0 17-7.63l10.5 12.4a29.3 29.3 0 0 1-12.16 9.42 41.1 41.1 0 0 1-16.9 3.55zm-2.6-58.7q-10.07 0-12 13.35h23.16v-1.77q.15-5.52-2.78-8.55t-8.36-3.03zM1021.53 241.5a25.85 25.85 0 0 1-2.18-6.62q-6.33 8-17.7 8a26.14 26.14 0 0 1-17.72-6.3 20 20 0 0 1-7.3-15.83q0-12 8.86-18.1t25.73-6.14h7.08v-3.9q0-10.18-8.78-10.2-8.17 0-8.17 8.1h-23q0-10.7 9.1-17.35t23.18-6.67q14.1 0 22.27 6.88t8.38 18.86v32.58q.14 10.15 3.13 15.53v1.16zm-14.37-15a12.8 12.8 0 0 0 7.12-1.85 11.53 11.53 0 0 0 4.05-4.15v-11.77h-6.67q-12 0-12 10.76a6.57 6.57 0 0 0 2.1 5.06 7.64 7.64 0 0 0 5.4 1.94zM1078.26 241.5h-23V136.9h23zM1119.12 149.5v18.3h12.12v15.94h-12.12v33.7q0 4.16 1.5 5.8t5.92 1.63a33.67 33.67 0 0 0 5.72-.4v16.4a42.38 42.38 0 0 1-12.94 2q-11.85 0-17.5-5.58t-5.65-17v-36.56h-9.4V167.8h9.4v-18.3zM1162.7 175.7q7.36-9.26 18.8-9.26 12.2 0 18.4 7.22t6.32 21.3v46.52h-23v-46q0-5.86-2.38-8.6t-8.1-2.77q-7.08 0-10 4.5v52.85h-22.95V136.9h22.94zM250.9 118.92v-97.3L227.8 60.76a20.5 20.5 0 0 1-15.34 26L209 92.62a20.48 20.48 0 1 1-18.32 31.08l-10.28 17.5v85.5c0 10.8-7.5 19.6-18.3 19.6s-18.28-8.8-18.28-19.6v-23.4l-33.12 56.16v98.25h140.2v-97.4h98.6V118.9zm-90.6 133.65a20.5 20.5 0 1 1-20.5 20.5 20.5 20.5 0 0 1 20.5-20.5zm65.83 68.8a17.37 17.37 0 0 1-17.37 17.37h-50.63a17.37 17.37 0 0 1-17.37-17.37v-4.9a17.37 17.37 0 0 1 17.37-17.37h50.64a17.37 17.37 0 0 1 17.37 17.37zm0-48.32a19.82 19.82 0 0 1-39.64 0v-114a19.82 19.82 0 0 1 39.63 0zm28-132.15a20.5 20.5 0 1 1-20.5 20.5 20.5 20.5 0 0 1 20.53-20.5zm63.45 67.65a17.37 17.37 0 0 1-17.37 17.37h-50.6a17.37 17.37 0 0 1-17.37-17.37v-4.9a17.37 17.37 0 0 1 17.37-17.37h50.64a17.37 17.37 0 0 1 17.37 17.37zm-19.5-26.67a20.5 20.5 0 1 1 20.5-20.5 20.5 20.5 0 0 1-20.47 20.5z" class="7c77eb9e-0f66-4f32-8dcf-f420d0408239"/><path d="M143.8 112.72c0-10.78 7.52-19.6 18.3-19.6s18.3 8.82 18.3 19.6v28.5l10.3-17.52a20.46 20.46 0 0 1 17.5-31.12c.3 0 .56 0 .83 0l3.44-5.84a20.5 20.5 0 1 1 15.34-26L250.9 21.6H110.7c.6-3 0 97.57 0 97.57H9.65v140.3H110.7l33.1-56.18zm19.28-66.48a20.5 20.5 0 1 1-20.5 20.5 20.5 20.5 0 0 1 20.5-20.5zM71.2 140.9a20.5 20.5 0 1 1-20.5 20.48 20.5 20.5 0 0 1 20.5-20.5zm63.46 67.64a17.37 17.37 0 0 1-17.37 17.37H66.64a17.37 17.37 0 0 1-17.37-17.36v-4.9a17.37 17.37 0 0 1 17.37-17.37h50.64a17.37 17.37 0 0 1 17.36 17.37zm-19.5-26.67a20.5 20.5 0 1 1 20.5-20.5 20.5 20.5 0 0 1-20.5 20.5z" class="08b4f7b2-e086-4ef8-b8e3-b7afea645971"/></svg>