<svg preserveAspectRatio="none" data-bbox="0.09 0.001 511.91 512.062" viewBox="0.09 0.001 511.91 512.062" xmlns="http://www.w3.org/2000/svg" data-type="shape" role="presentation" aria-hidden="true" aria-label="" fill="#ffffff">
    <g>
        <path d="M368.22 88.176c-21.822 0-39.577 17.755-39.577 39.577s17.755 39.577 39.577 39.577 39.577-17.755 39.577-39.577-17.755-39.577-39.577-39.577m0 64.124c-13.536 0-24.548-11.012-24.548-24.548s11.011-24.548 24.548-24.548 24.548 11.012 24.548 24.548S381.756 152.3 368.22 152.3"></path>
        <path d="M223.939 360.706c-26.242 0-47.593 21.351-47.593 47.593 0 32.794 40.552 73.723 42.278 75.45a7.515 7.515 0 0 0 10.628 0c1.725-1.725 42.278-42.656 42.278-75.45.002-26.243-21.349-47.593-47.591-47.593m0 106.772c-12.366-13.763-32.563-40.224-32.563-59.18 0-17.955 14.607-32.563 32.563-32.563s32.563 14.608 32.563 32.563c.001 18.957-20.198 45.42-32.563 59.18"></path>
        <path d="M223.939 385.754c-12.43 0-22.544 10.113-22.544 22.544s10.114 22.544 22.544 22.544 22.544-10.113 22.544-22.544-10.114-22.544-22.544-22.544m0 30.059c-4.144 0-7.515-3.371-7.515-7.515s3.371-7.515 7.515-7.515 7.515 3.371 7.515 7.515-3.371 7.515-7.515 7.515"></path>
        <path d="M322.955.571a7.514 7.514 0 0 0-9.813 4.08l-36.459 88.352-134.056-35.455V7.519a7.515 7.515 0 1 0-15.03 0v55.816a7.514 7.514 0 0 0 5.593 7.264l146.007 38.617a7.52 7.52 0 0 0 8.869-4.399l38.968-94.433a7.516 7.516 0 0 0-4.079-9.813"></path>
        <path d="M96.956 299.397 9.44 276.249a7.515 7.515 0 0 0-3.844 14.529l81.923 21.668v52.768a7.515 7.515 0 1 0 15.03 0v-58.553a7.514 7.514 0 0 0-5.593-7.264"></path>
        <path d="M95.034.004a7.515 7.515 0 0 0-7.515 7.515v35.454L9.44 22.322a7.515 7.515 0 0 0-3.844 14.529l87.516 23.147a7.518 7.518 0 0 0 9.437-7.265V7.519A7.516 7.516 0 0 0 95.034.004"></path>
        <path d="M95.034 393.77a7.515 7.515 0 0 0-7.515 7.515v103.201a7.515 7.515 0 1 0 15.03 0V401.285a7.516 7.516 0 0 0-7.515-7.515"></path>
        <path d="M96.956 86.925 9.44 63.778a7.515 7.515 0 0 0-3.844 14.529L87.52 99.976v155.469L9.44 234.794a7.515 7.515 0 0 0-3.844 14.529l87.516 23.147a7.518 7.518 0 0 0 9.437-7.265V94.189a7.514 7.514 0 0 0-5.593-7.264"></path>
        <path d="M507.352 68.478a7.51 7.51 0 0 0-9.813 4.08l-29.34 71.1-28.881-7.639c.348-2.786.542-5.548.542-8.268 0-39.502-32.138-71.639-71.639-71.639a71.6 71.6 0 0 0-17.607 2.195l19.776-47.924A7.516 7.516 0 0 0 366.311.57a7.513 7.513 0 0 0-9.813 4.08L330.93 66.607c-20.583 12.601-34.349 35.293-34.349 61.143 0 4.018.404 8.122 1.143 12.274l-160.69-42.498a7.52 7.52 0 0 0-9.437 7.266v38.069c-9.445 8.703-15.376 21.166-15.376 34.991 0 13.662 7.039 28.734 15.376 41.796v56.158a7.514 7.514 0 0 0 5.593 7.264l258.473 68.365a7.52 7.52 0 0 0 8.869-4.399l63.626-154.187a7.514 7.514 0 0 0-5.024-10.131l-32.643-8.634c3.932-7.683 7.272-15.55 9.633-23.362l34.592 9.149a7.52 7.52 0 0 0 8.869-4.399l31.849-77.181a7.52 7.52 0 0 0-4.082-9.813M368.22 71.142c31.215 0 56.61 25.395 56.61 56.61 0 36.579-41.6 85.015-56.61 101.301-15.01-16.285-56.61-64.722-56.61-101.301 0-31.214 25.395-56.61 56.61-56.61M127.251 177.85c0-17.955 14.607-32.563 32.563-32.563s32.563 14.608 32.563 32.563c0 18.957-20.198 45.419-32.563 59.18-12.366-13.763-32.563-40.224-32.563-59.18m319.739 17.201-57.841 140.172-246.522-65.203v-29.937c6.332 7.631 11.294 12.638 11.874 13.218a7.51 7.51 0 0 0 10.628 0c1.726-1.726 42.278-42.656 42.278-75.45 0-26.242-21.351-47.593-47.593-47.593-6.06 0-11.852 1.15-17.187 3.225V114.55l159.709 42.241c15.718 43.25 58.364 86.286 60.569 88.492a7.51 7.51 0 0 0 10.628 0c1.671-1.671 26.555-26.783 45.355-57.665z"></path>
        <path d="m506.407 407.693-87.233-23.072a7.51 7.51 0 0 0-8.868 4.399l-46.465 112.6a7.516 7.516 0 0 0 13.893 5.733l43.956-106.52 80.874 21.391c4.014 1.065 8.125-1.332 9.187-5.343a7.52 7.52 0 0 0-5.344-9.188"></path>
        <path d="m506.407 366.236-63.511-16.798 60.351-146.251a7.515 7.515 0 1 0-13.892-5.733l-63.627 154.187a7.514 7.514 0 0 0 5.024 10.131l71.81 18.993a7.5 7.5 0 0 0 1.927.252 7.516 7.516 0 0 0 1.918-14.781"></path>
        <path d="M384.894 378.208a7.52 7.52 0 0 0-4.81-3.926l-243.05-64.285a7.52 7.52 0 0 0-6.506 1.311 7.51 7.51 0 0 0-2.931 5.955v187.223a7.515 7.515 0 1 0 15.03 0V327.022l225.314 59.594-47.456 115.003a7.515 7.515 0 1 0 13.893 5.733l50.732-122.939a7.52 7.52 0 0 0-.216-6.205"></path>
        <path d="M159.814 155.306c-12.43 0-22.544 10.113-22.544 22.544s10.114 22.544 22.544 22.544 22.544-10.113 22.544-22.544-10.113-22.544-22.544-22.544m0 30.059c-4.144 0-7.515-3.371-7.515-7.515s3.371-7.515 7.515-7.515 7.515 3.371 7.515 7.515-3.371 7.515-7.515 7.515"></path>
    </g>
</svg>