<svg preserveAspectRatio="none" data-bbox="2 0 60 64" xmlns="http://www.w3.org/2000/svg" width="512" viewBox="2 0 60 64" height="512" data-type="shape" role="presentation" aria-hidden="true" aria-label="" fill="#ffffff">
    <g>
        <path d="M56.8 18H7.2a.998.998 0 0 0-.934 1.357l3.818 10c.148.387.52.643.935.643h41.963c.415 0 .786-.256.935-.644l3.818-10a1 1 0 0 0-.111-.924A1 1 0 0 0 56.8 18m-4.507 10H11.707l-3.055-8h46.695z"></path>
        <path d="M51.454 32H12.546a.998.998 0 0 0-.934 1.357l3.817 10a1 1 0 0 0 .934.643h31.273c.415 0 .786-.256.935-.644l3.817-10A1 1 0 0 0 51.454 32m-4.506 10H17.052l-3.054-8h36.004z"></path>
        <path d="M46.109 46H17.891a.998.998 0 0 0-.934 1.357l6.109 16A1 1 0 0 0 24 64h16c.415 0 .786-.256.935-.644l6.109-16a1 1 0 0 0-.111-.924 1 1 0 0 0-.824-.432m-6.797 16H24.688l-5.346-14h25.314z"></path>
        <path d="M61 0H3a1 1 0 0 0-1 1v7q0 .185.065.356l2.673 7c.149.388.52.644.935.644h52.654c.415 0 .786-.256.935-.644l2.673-7Q62 8.185 62 8V1a1 1 0 0 0-1-1m-1 7.815L57.639 14H6.361L4 7.815V2h56z"></path>
        <path d="M32 58a1 1 0 0 1-1-1h-2c0 1.302.839 2.402 2 2.816V61h2v-1.184A3 3 0 0 0 35 57c0-1.654-1.346-3-3-3a1 1 0 1 1 1-1h2a3 3 0 0 0-2-2.816V49h-2v1.184A3 3 0 0 0 29 53c0 1.654 1.346 3 3 3a1 1 0 0 1 0 2"></path>
    </g>
</svg>