<svg preserveAspectRatio="none" data-bbox="50.736 0 410.529 512" xmlns="http://www.w3.org/2000/svg" width="512" viewBox="50.736 0 410.529 512" height="512" data-type="shape" role="presentation" aria-hidden="true" aria-label="" fill="#ffffff">
    <g>
        <path d="M413.784 229.232h-56.547v-64.019c0-10.301-5.816-19.248-14.325-23.79.012-.228.033-.454.033-.684l-.012-10.869c-.235-17.03-2.578-26.389-15.835-36.827l-11.644-9.169a21.8 21.8 0 0 1-4.542-4.909c8.131-2.48 14.065-10.046 14.065-18.978V12.702C324.977 5.698 319.28 0 312.275 0h-72.639c-4.142 0-7.499 3.357-7.499 7.499s3.357 7.499 7.499 7.499h70.342v44.988a4.847 4.847 0 0 1-4.841 4.842H193.11a4.85 4.85 0 0 1-4.842-4.842V14.999h16.309a7.5 7.5 0 0 0 0-14.999h-18.605c-7.004 0-12.703 5.698-12.703 12.702v47.284c0 9.517 6.738 17.484 15.692 19.397-.352 11.518-13.619 27.017-17.414 58.851h-3.561c-14.875 0-26.976 12.102-26.976 26.977v64.019H98.216c-26.181 0-47.48 21.299-47.48 47.48v128.735c0 4.142 3.357 7.499 7.499 7.499s7.499-3.357 7.499-7.499v-60.45c8.5 7.988 19.924 12.896 32.481 12.896h2.94v8.002c0 17.731 14.425 32.156 32.156 32.156s32.155-14.425 32.155-32.156v-8.002h181.067v8.002c0 17.731 14.425 32.156 32.155 32.156s32.155-14.425 32.155-32.156v-8.002h2.941c12.556 0 23.981-4.908 32.481-12.896V464.52c0 17.91-14.571 32.481-32.481 32.481H98.216c-17.91 0-32.481-14.571-32.481-32.481v-23.897c0-4.142-3.357-7.499-7.499-7.499s-7.499 3.357-7.499 7.499v23.897c0 26.181 21.299 47.48 47.48 47.48h315.568c26.181 0 47.48-21.299 47.48-47.48V276.711c-.002-26.18-21.301-47.479-47.481-47.479m-228.169-75.455c0-38.754 17.807-55.769 18.351-73.949h90.578a36.9 36.9 0 0 0 11.632 15.83l11.644 9.169c8.305 6.54 9.912 10.552 10.115 25.154l.008 8.254-3.066.001c-10.402 0-18.869 8.463-18.872 18.867l-.014 42.5a5.33 5.33 0 0 1-5.323 5.323h-8.2a5.33 5.33 0 0 1-5.323-5.323v-4.474c0-9.914-14.999-9.93-14.999 0a5.33 5.33 0 0 1-5.323 5.324h-8.2a5.33 5.33 0 0 1-5.323-5.324v-6.531c0-9.914-14.999-9.93-14.999 0a5.33 5.33 0 0 1-5.323 5.323h-8.2a5.33 5.33 0 0 1-5.323-5.323v-8.218c0-9.914-14.999-9.93-14.999 0a5.33 5.33 0 0 1-5.323 5.323h-8.2a5.33 5.33 0 0 1-5.323-5.324v-26.602zm-29.606 11.435c0-6.605 5.374-11.979 11.978-11.979h2.64c-.019 4.795-.008 19.163-.011 27.144 0 11.206 9.116 20.323 20.322 20.323h8.2c2.909 0 5.677-.614 8.181-1.72 3.55 5.947 10.049 9.938 17.463 9.938h8.2c3.238 0 6.301-.762 9.021-2.114 3.681 5.225 9.761 8.646 16.624 8.646h8.2c3.692 0 7.159-.99 10.146-2.719 3.73 4.397 9.294 7.192 15.499 7.192h8.2c11.205 0 20.322-9.116 20.322-20.32l.014-42.498a3.88 3.88 0 0 1 3.873-3.872l4.646-.001h.737c6.605 0 11.978 5.374 11.978 11.979v64.019H156.009zm-5.541 200.683c0 9.46-7.696 17.157-17.156 17.157s-17.157-7.697-17.157-17.157V346.16h34.313zm0-34.734h-34.313v-12.069a1.36 1.36 0 0 1 1.358-1.358h31.596a1.36 1.36 0 0 1 1.358 1.358v12.069zm245.376 34.734c0 9.46-7.696 17.157-17.156 17.157s-17.156-7.697-17.156-17.157V346.16h34.312zm0-34.734h-34.312v-12.069a1.36 1.36 0 0 1 1.358-1.358h31.595a1.36 1.36 0 0 1 1.358 1.358zm50.421-20.749c0 17.911-14.571 32.482-32.481 32.482h-2.941v-23.802c0-9.02-7.337-16.357-16.357-16.357H362.89c-9.02 0-16.357 7.337-16.357 16.357v23.802H165.467v-23.802c0-9.02-7.337-16.357-16.357-16.357h-31.596c-9.02 0-16.357 7.337-16.357 16.357v23.802h-2.94c-17.91 0-32.481-14.571-32.481-32.482v-33.7c0-17.91 14.571-32.481 32.481-32.481h315.568c17.91 0 32.481 14.571 32.481 32.481z"></path>
    </g>
</svg>