<svg xmlns="http://www.w3.org/2000/svg" xmlns:xlink="http://www.w3.org/1999/xlink" width="500" zoomAndPan="magnify" viewBox="0 0 375 374.999991" height="500" preserveAspectRatio="xMidYMid meet" version="1.2"><defs><clipPath id="6805953cbb"><path d="M 17 148 L 358 148 L 358 356.242188 L 17 356.242188 Z M 17 148 "/></clipPath><clipPath id="30c67645f6"><path d="M 140 92.992188 L 231 92.992188 L 231 182 L 140 182 Z M 140 92.992188 "/></clipPath><clipPath id="87b6e702d0"><path d="M 17 148 L 358 148 L 358 356.242188 L 17 356.242188 Z M 17 148 "/></clipPath><clipPath id="e23004d1ad"><path d="M 140 92.992188 L 231 92.992188 L 231 182 L 140 182 Z M 140 92.992188 "/></clipPath></defs><g id="ad49f15352"><g clip-rule="nonzero" clip-path="url(#6805953cbb)"><path style=" stroke:none;fill-rule:nonzero;fill:#0069ff;fill-opacity:1;" d="M 356.820312 148.238281 C 354.140625 148.515625 351.464844 148.847656 348.796875 149.238281 C 346.132812 149.628906 343.472656 150.074219 340.824219 150.578125 C 338.179688 151.082031 335.542969 151.644531 332.917969 152.261719 C 330.292969 152.875 327.683594 153.546875 325.089844 154.277344 C 322.492188 155.003906 319.914062 155.785156 317.351562 156.625 C 314.789062 157.460938 312.246094 158.351562 309.722656 159.296875 C 307.199219 160.242188 304.695312 161.242188 302.214844 162.296875 C 299.730469 163.347656 297.273438 164.453125 294.839844 165.609375 C 292.40625 166.769531 289.996094 167.976562 287.613281 169.238281 C 285.230469 170.496094 282.875 171.808594 280.546875 173.167969 C 278.222656 174.527344 275.921875 175.9375 273.65625 177.394531 C 271.390625 178.851562 269.15625 180.359375 266.953125 181.914062 C 264.75 183.464844 262.582031 185.066406 260.445312 186.710938 C 258.3125 188.359375 256.210938 190.050781 254.148438 191.785156 C 252.085938 193.519531 250.0625 195.296875 248.074219 197.121094 C 246.089844 198.941406 244.140625 200.804688 242.234375 202.710938 C 240.328125 204.613281 238.460938 206.558594 236.636719 208.542969 C 234.8125 210.527344 233.03125 212.550781 231.292969 214.609375 C 229.554688 216.671875 227.859375 218.765625 226.210938 220.898438 C 224.5625 223.03125 222.960938 225.199219 221.402344 227.398438 C 219.847656 229.601562 218.339844 231.832031 216.878906 234.097656 C 215.414062 236.363281 214.003906 238.660156 212.640625 240.984375 C 211.277344 243.308594 209.964844 245.664062 208.699219 248.042969 C 207.4375 250.425781 206.226562 252.832031 205.0625 255.265625 C 203.902344 257.699219 202.796875 260.15625 201.738281 262.632812 C 200.683594 265.113281 199.679688 267.617188 198.730469 270.140625 C 197.78125 272.664062 196.886719 275.203125 196.046875 277.765625 C 195.207031 280.328125 194.417969 282.902344 193.6875 285.5 C 192.957031 288.09375 192.28125 290.703125 191.664062 293.324219 C 191.042969 295.949219 190.480469 298.585938 189.972656 301.230469 C 189.464844 303.878906 189.011719 306.535156 188.621094 309.203125 C 188.226562 311.867188 187.886719 314.542969 187.609375 317.222656 C 187.328125 314.542969 186.992188 311.867188 186.597656 309.203125 C 186.203125 306.535156 185.75 303.878906 185.242188 301.230469 C 184.734375 298.585938 184.171875 295.949219 183.550781 293.324219 C 182.933594 290.703125 182.257812 288.09375 181.527344 285.5 C 180.796875 282.902344 180.007812 280.328125 179.167969 277.765625 C 178.328125 275.203125 177.433594 272.664062 176.484375 270.140625 C 175.535156 267.617188 174.53125 265.113281 173.476562 262.632812 C 172.417969 260.15625 171.3125 257.699219 170.152344 255.265625 C 168.992188 252.832031 167.777344 250.425781 166.515625 248.042969 C 165.253906 245.664062 163.9375 243.308594 162.574219 240.984375 C 161.210938 238.660156 159.800781 236.363281 158.339844 234.097656 C 156.875 231.832031 155.367188 229.601562 153.8125 227.398438 C 152.253906 225.199219 150.652344 223.03125 149.003906 220.898438 C 147.355469 218.765625 145.660156 216.671875 143.921875 214.609375 C 142.183594 212.550781 140.402344 210.527344 138.578125 208.542969 C 136.753906 206.558594 134.886719 204.613281 132.980469 202.710938 C 131.074219 200.804688 129.125 198.941406 127.140625 197.121094 C 125.152344 195.296875 123.128906 193.519531 121.066406 191.785156 C 119.003906 190.050781 116.90625 188.359375 114.769531 186.710938 C 112.636719 185.066406 110.464844 183.464844 108.261719 181.914062 C 106.0625 180.359375 103.824219 178.855469 101.558594 177.394531 C 99.292969 175.9375 96.996094 174.527344 94.667969 173.167969 C 92.339844 171.808594 89.984375 170.496094 87.601562 169.238281 C 85.21875 167.976562 82.8125 166.769531 80.375 165.609375 C 77.941406 164.453125 75.484375 163.347656 73.003906 162.296875 C 70.519531 161.242188 68.019531 160.242188 65.492188 159.296875 C 62.96875 158.351562 60.425781 157.460938 57.863281 156.625 C 55.300781 155.785156 52.722656 155.003906 50.128906 154.277344 C 47.53125 153.546875 44.921875 152.875 42.296875 152.261719 C 39.671875 151.644531 37.039062 151.082031 34.390625 150.578125 C 31.742188 150.074219 29.082031 149.628906 26.417969 149.238281 C 23.75 148.847656 21.074219 148.515625 18.394531 148.238281 C 18.078125 151.324219 17.835938 154.417969 17.667969 157.515625 C 17.503906 160.613281 17.414062 163.714844 17.398438 166.820312 C 17.386719 169.921875 17.449219 173.023438 17.589844 176.125 C 17.726562 179.226562 17.941406 182.320312 18.234375 185.410156 C 18.523438 188.5 18.890625 191.582031 19.332031 194.652344 C 19.773438 197.722656 20.289062 200.78125 20.882812 203.828125 C 21.476562 206.875 22.140625 209.90625 22.882812 212.917969 C 23.625 215.933594 24.4375 218.925781 25.324219 221.898438 C 26.214844 224.875 27.171875 227.824219 28.207031 230.75 C 29.238281 233.675781 30.34375 236.574219 31.519531 239.449219 C 32.691406 242.320312 33.9375 245.164062 35.253906 247.972656 C 36.566406 250.785156 37.949219 253.5625 39.402344 256.304688 C 40.851562 259.046875 42.367188 261.753906 43.953125 264.421875 C 45.535156 267.09375 47.183594 269.71875 48.898438 272.308594 C 50.609375 274.894531 52.386719 277.441406 54.222656 279.941406 C 56.058594 282.441406 57.957031 284.894531 59.917969 287.304688 C 61.875 289.710938 63.890625 292.070312 65.964844 294.378906 C 68.039062 296.6875 70.167969 298.941406 72.351562 301.148438 C 74.539062 303.351562 76.773438 305.5 79.066406 307.59375 C 81.355469 309.6875 83.695312 311.726562 86.085938 313.707031 C 88.476562 315.683594 90.914062 317.605469 93.398438 319.464844 C 95.882812 321.324219 98.410156 323.121094 100.984375 324.855469 C 103.554688 326.59375 106.167969 328.261719 108.824219 329.871094 C 111.480469 331.476562 114.171875 333.019531 116.902344 334.492188 C 119.632812 335.96875 122.398438 337.375 125.195312 338.714844 C 127.996094 340.054688 130.828125 341.324219 133.6875 342.523438 C 136.550781 343.726562 139.441406 344.855469 142.355469 345.914062 C 145.273438 346.972656 148.214844 347.957031 151.183594 348.871094 C 154.148438 349.785156 157.132812 350.628906 160.140625 351.394531 C 163.148438 352.160156 166.171875 352.855469 169.210938 353.472656 C 172.253906 354.09375 175.308594 354.636719 178.375 355.105469 C 181.441406 355.574219 184.519531 355.96875 187.609375 356.285156 C 190.695312 355.96875 193.773438 355.574219 196.839844 355.105469 C 199.90625 354.636719 202.960938 354.09375 206.003906 353.472656 C 209.042969 352.855469 212.066406 352.160156 215.074219 351.394531 C 218.082031 350.628906 221.066406 349.785156 224.035156 348.871094 C 227 347.957031 229.941406 346.972656 232.859375 345.914062 C 235.773438 344.855469 238.664062 343.726562 241.527344 342.523438 C 244.386719 341.324219 247.21875 340.054688 250.019531 338.714844 C 252.816406 337.375 255.582031 335.96875 258.3125 334.492188 C 261.042969 333.019531 263.738281 331.476562 266.390625 329.871094 C 269.046875 328.261719 271.660156 326.59375 274.230469 324.855469 C 276.804688 323.121094 279.332031 321.324219 281.816406 319.464844 C 284.300781 317.605469 286.738281 315.683594 289.128906 313.703125 C 291.519531 311.726562 293.859375 309.6875 296.148438 307.59375 C 298.441406 305.5 300.679688 303.351562 302.863281 301.148438 C 305.046875 298.941406 307.175781 296.6875 309.25 294.378906 C 311.324219 292.070312 313.339844 289.710938 315.296875 287.304688 C 317.257812 284.894531 319.15625 282.441406 320.992188 279.941406 C 322.832031 277.441406 324.605469 274.894531 326.316406 272.308594 C 328.03125 269.71875 329.679688 267.09375 331.261719 264.421875 C 332.847656 261.753906 334.363281 259.046875 335.816406 256.304688 C 337.265625 253.5625 338.648438 250.785156 339.964844 247.972656 C 341.277344 245.164062 342.523438 242.320312 343.699219 239.449219 C 344.871094 236.574219 345.976562 233.675781 347.007812 230.75 C 348.042969 227.824219 349.003906 224.875 349.890625 221.898438 C 350.777344 218.925781 351.59375 215.933594 352.332031 212.917969 C 353.074219 209.90625 353.742188 206.875 354.332031 203.828125 C 354.925781 200.78125 355.441406 197.722656 355.882812 194.652344 C 356.324219 191.582031 356.691406 188.5 356.984375 185.410156 C 357.273438 182.320312 357.488281 179.226562 357.628906 176.125 C 357.765625 173.023438 357.828125 169.921875 357.816406 166.820312 C 357.800781 163.714844 357.710938 160.613281 357.546875 157.515625 C 357.378906 154.417969 357.140625 151.324219 356.820312 148.238281 Z M 356.820312 148.238281 "/></g><g clip-rule="nonzero" clip-path="url(#30c67645f6)"><path style=" stroke:none;fill-rule:nonzero;fill:#434960;fill-opacity:1;" d="M 230.28125 137.183594 C 230.28125 138.628906 230.207031 140.074219 230.0625 141.515625 C 229.917969 142.957031 229.703125 144.386719 229.414062 145.804688 C 229.125 147.222656 228.765625 148.625 228.339844 150.011719 C 227.910156 151.398438 227.414062 152.757812 226.847656 154.09375 C 226.285156 155.433594 225.652344 156.738281 224.957031 158.015625 C 224.261719 159.292969 223.503906 160.53125 222.683594 161.734375 C 221.863281 162.9375 220.984375 164.101562 220.046875 165.21875 C 219.109375 166.335938 218.121094 167.410156 217.078125 168.433594 C 216.03125 169.457031 214.941406 170.425781 213.800781 171.34375 C 212.65625 172.261719 211.472656 173.125 210.246094 173.929688 C 209.019531 174.734375 207.753906 175.476562 206.453125 176.15625 C 205.148438 176.839844 203.816406 177.457031 202.453125 178.011719 C 201.089844 178.566406 199.699219 179.054688 198.289062 179.472656 C 196.875 179.894531 195.445312 180.246094 193.996094 180.527344 C 192.546875 180.808594 191.089844 181.023438 189.621094 181.164062 C 188.152344 181.304688 186.679688 181.375 185.203125 181.375 C 183.726562 181.375 182.253906 181.304688 180.785156 181.164062 C 179.3125 181.023438 177.855469 180.808594 176.40625 180.527344 C 174.960938 180.246094 173.527344 179.894531 172.117188 179.472656 C 170.703125 179.054688 169.316406 178.566406 167.949219 178.011719 C 166.585938 177.457031 165.253906 176.839844 163.953125 176.15625 C 162.648438 175.476562 161.386719 174.734375 160.15625 173.929688 C 158.929688 173.125 157.746094 172.261719 156.605469 171.34375 C 155.464844 170.425781 154.371094 169.457031 153.328125 168.433594 C 152.28125 167.410156 151.292969 166.335938 150.355469 165.21875 C 149.417969 164.101562 148.539062 162.9375 147.71875 161.734375 C 146.898438 160.53125 146.140625 159.292969 145.445312 158.015625 C 144.75 156.738281 144.121094 155.433594 143.554688 154.09375 C 142.988281 152.757812 142.492188 151.398438 142.066406 150.011719 C 141.636719 148.625 141.277344 147.222656 140.988281 145.804688 C 140.703125 144.386719 140.484375 142.957031 140.339844 141.515625 C 140.195312 140.074219 140.125 138.628906 140.125 137.183594 C 140.125 135.734375 140.195312 134.292969 140.339844 132.851562 C 140.484375 131.410156 140.703125 129.980469 140.988281 128.5625 C 141.277344 127.140625 141.636719 125.738281 142.066406 124.355469 C 142.492188 122.96875 142.988281 121.609375 143.554688 120.269531 C 144.121094 118.933594 144.75 117.628906 145.445312 116.351562 C 146.140625 115.074219 146.898438 113.835938 147.71875 112.632812 C 148.539062 111.425781 149.417969 110.265625 150.355469 109.148438 C 151.292969 108.027344 152.28125 106.957031 153.328125 105.933594 C 154.371094 104.910156 155.464844 103.941406 156.605469 103.023438 C 157.746094 102.101562 158.929688 101.242188 160.15625 100.4375 C 161.386719 99.632812 162.648438 98.890625 163.953125 98.207031 C 165.253906 97.527344 166.585938 96.90625 167.949219 96.355469 C 169.316406 95.800781 170.703125 95.3125 172.117188 94.894531 C 173.527344 94.472656 174.960938 94.121094 176.40625 93.839844 C 177.855469 93.558594 179.3125 93.34375 180.785156 93.203125 C 182.253906 93.0625 183.726562 92.992188 185.203125 92.992188 C 186.679688 92.992188 188.152344 93.0625 189.621094 93.203125 C 191.089844 93.34375 192.546875 93.558594 193.996094 93.839844 C 195.445312 94.121094 196.875 94.472656 198.289062 94.894531 C 199.699219 95.3125 201.089844 95.800781 202.453125 96.355469 C 203.816406 96.90625 205.148438 97.527344 206.453125 98.207031 C 207.753906 98.890625 209.019531 99.632812 210.246094 100.4375 C 211.472656 101.242188 212.65625 102.101562 213.800781 103.023438 C 214.941406 103.941406 216.03125 104.910156 217.078125 105.933594 C 218.121094 106.957031 219.109375 108.027344 220.046875 109.148438 C 220.984375 110.265625 221.863281 111.425781 222.683594 112.632812 C 223.503906 113.835938 224.261719 115.074219 224.957031 116.351562 C 225.652344 117.628906 226.285156 118.933594 226.847656 120.269531 C 227.414062 121.609375 227.910156 122.96875 228.339844 124.355469 C 228.765625 125.738281 229.125 127.140625 229.414062 128.5625 C 229.703125 129.980469 229.917969 131.410156 230.0625 132.851562 C 230.207031 134.292969 230.28125 135.734375 230.28125 137.183594 Z M 230.28125 137.183594 "/></g><g clip-rule="nonzero" clip-path="url(#87b6e702d0)"><path style=" stroke:none;fill-rule:nonzero;fill:#0069ff;fill-opacity:1;" d="M 356.820312 148.238281 C 354.140625 148.515625 351.464844 148.847656 348.796875 149.238281 C 346.132812 149.628906 343.472656 150.074219 340.824219 150.578125 C 338.179688 151.082031 335.542969 151.644531 332.917969 152.261719 C 330.292969 152.875 327.683594 153.546875 325.089844 154.277344 C 322.492188 155.003906 319.914062 155.785156 317.351562 156.625 C 314.789062 157.460938 312.246094 158.351562 309.722656 159.296875 C 307.199219 160.242188 304.695312 161.242188 302.214844 162.296875 C 299.730469 163.347656 297.273438 164.453125 294.839844 165.609375 C 292.40625 166.769531 289.996094 167.976562 287.613281 169.238281 C 285.230469 170.496094 282.875 171.808594 280.546875 173.167969 C 278.222656 174.527344 275.921875 175.9375 273.65625 177.394531 C 271.390625 178.851562 269.15625 180.359375 266.953125 181.914062 C 264.75 183.464844 262.582031 185.066406 260.445312 186.710938 C 258.3125 188.359375 256.210938 190.050781 254.148438 191.785156 C 252.085938 193.519531 250.0625 195.296875 248.074219 197.121094 C 246.089844 198.941406 244.140625 200.804688 242.234375 202.710938 C 240.328125 204.613281 238.460938 206.558594 236.636719 208.542969 C 234.8125 210.527344 233.03125 212.550781 231.292969 214.609375 C 229.554688 216.671875 227.859375 218.765625 226.210938 220.898438 C 224.5625 223.03125 222.960938 225.199219 221.402344 227.398438 C 219.847656 229.601562 218.339844 231.832031 216.878906 234.097656 C 215.414062 236.363281 214.003906 238.660156 212.640625 240.984375 C 211.277344 243.308594 209.964844 245.664062 208.699219 248.042969 C 207.4375 250.425781 206.226562 252.832031 205.0625 255.265625 C 203.902344 257.699219 202.796875 260.15625 201.738281 262.632812 C 200.683594 265.113281 199.679688 267.617188 198.730469 270.140625 C 197.78125 272.664062 196.886719 275.203125 196.046875 277.765625 C 195.207031 280.328125 194.417969 282.902344 193.6875 285.5 C 192.957031 288.09375 192.28125 290.703125 191.664062 293.324219 C 191.042969 295.949219 190.480469 298.585938 189.972656 301.230469 C 189.464844 303.878906 189.011719 306.535156 188.621094 309.203125 C 188.226562 311.867188 187.886719 314.542969 187.609375 317.222656 C 187.328125 314.542969 186.992188 311.867188 186.597656 309.203125 C 186.203125 306.535156 185.75 303.878906 185.242188 301.230469 C 184.734375 298.585938 184.171875 295.949219 183.550781 293.324219 C 182.933594 290.703125 182.257812 288.09375 181.527344 285.5 C 180.796875 282.902344 180.007812 280.328125 179.167969 277.765625 C 178.328125 275.203125 177.433594 272.664062 176.484375 270.140625 C 175.535156 267.617188 174.53125 265.113281 173.476562 262.632812 C 172.417969 260.15625 171.3125 257.699219 170.152344 255.265625 C 168.992188 252.832031 167.777344 250.425781 166.515625 248.042969 C 165.253906 245.664062 163.9375 243.308594 162.574219 240.984375 C 161.210938 238.660156 159.800781 236.363281 158.339844 234.097656 C 156.875 231.832031 155.367188 229.601562 153.8125 227.398438 C 152.253906 225.199219 150.652344 223.03125 149.003906 220.898438 C 147.355469 218.765625 145.660156 216.671875 143.921875 214.609375 C 142.183594 212.550781 140.402344 210.527344 138.578125 208.542969 C 136.753906 206.558594 134.886719 204.613281 132.980469 202.710938 C 131.074219 200.804688 129.125 198.941406 127.140625 197.121094 C 125.152344 195.296875 123.128906 193.519531 121.066406 191.785156 C 119.003906 190.050781 116.90625 188.359375 114.769531 186.710938 C 112.636719 185.066406 110.464844 183.464844 108.261719 181.914062 C 106.0625 180.359375 103.824219 178.855469 101.558594 177.394531 C 99.292969 175.9375 96.996094 174.527344 94.667969 173.167969 C 92.339844 171.808594 89.984375 170.496094 87.601562 169.238281 C 85.21875 167.976562 82.8125 166.769531 80.375 165.609375 C 77.941406 164.453125 75.484375 163.347656 73.003906 162.296875 C 70.519531 161.242188 68.019531 160.242188 65.492188 159.296875 C 62.96875 158.351562 60.425781 157.460938 57.863281 156.625 C 55.300781 155.785156 52.722656 155.003906 50.128906 154.277344 C 47.53125 153.546875 44.921875 152.875 42.296875 152.261719 C 39.671875 151.644531 37.039062 151.082031 34.390625 150.578125 C 31.742188 150.074219 29.082031 149.628906 26.417969 149.238281 C 23.75 148.847656 21.074219 148.515625 18.394531 148.238281 C 18.078125 151.324219 17.835938 154.417969 17.667969 157.515625 C 17.503906 160.613281 17.414062 163.714844 17.398438 166.820312 C 17.386719 169.921875 17.449219 173.023438 17.589844 176.125 C 17.726562 179.226562 17.941406 182.320312 18.234375 185.410156 C 18.523438 188.5 18.890625 191.582031 19.332031 194.652344 C 19.773438 197.722656 20.289062 200.78125 20.882812 203.828125 C 21.476562 206.875 22.140625 209.90625 22.882812 212.917969 C 23.625 215.933594 24.4375 218.925781 25.324219 221.898438 C 26.214844 224.875 27.171875 227.824219 28.207031 230.75 C 29.238281 233.675781 30.34375 236.574219 31.519531 239.449219 C 32.691406 242.320312 33.9375 245.164062 35.253906 247.972656 C 36.566406 250.785156 37.949219 253.5625 39.402344 256.304688 C 40.851562 259.046875 42.367188 261.753906 43.953125 264.421875 C 45.535156 267.09375 47.183594 269.71875 48.898438 272.308594 C 50.609375 274.894531 52.386719 277.441406 54.222656 279.941406 C 56.058594 282.441406 57.957031 284.894531 59.917969 287.304688 C 61.875 289.710938 63.890625 292.070312 65.964844 294.378906 C 68.039062 296.6875 70.167969 298.941406 72.351562 301.148438 C 74.539062 303.351562 76.773438 305.5 79.066406 307.59375 C 81.355469 309.6875 83.695312 311.726562 86.085938 313.707031 C 88.476562 315.683594 90.914062 317.605469 93.398438 319.464844 C 95.882812 321.324219 98.410156 323.121094 100.984375 324.855469 C 103.554688 326.59375 106.167969 328.261719 108.824219 329.871094 C 111.480469 331.476562 114.171875 333.019531 116.902344 334.492188 C 119.632812 335.96875 122.398438 337.375 125.195312 338.714844 C 127.996094 340.054688 130.828125 341.324219 133.6875 342.523438 C 136.550781 343.726562 139.441406 344.855469 142.355469 345.914062 C 145.273438 346.972656 148.214844 347.957031 151.183594 348.871094 C 154.148438 349.785156 157.132812 350.628906 160.140625 351.394531 C 163.148438 352.160156 166.171875 352.855469 169.210938 353.472656 C 172.253906 354.09375 175.308594 354.636719 178.375 355.105469 C 181.441406 355.574219 184.519531 355.96875 187.609375 356.285156 C 190.695312 355.96875 193.773438 355.574219 196.839844 355.105469 C 199.90625 354.636719 202.960938 354.09375 206.003906 353.472656 C 209.042969 352.855469 212.066406 352.160156 215.074219 351.394531 C 218.082031 350.628906 221.066406 349.785156 224.035156 348.871094 C 227 347.957031 229.941406 346.972656 232.859375 345.914062 C 235.773438 344.855469 238.664062 343.726562 241.527344 342.523438 C 244.386719 341.324219 247.21875 340.054688 250.019531 338.714844 C 252.816406 337.375 255.582031 335.96875 258.3125 334.492188 C 261.042969 333.019531 263.738281 331.476562 266.390625 329.871094 C 269.046875 328.261719 271.660156 326.59375 274.230469 324.855469 C 276.804688 323.121094 279.332031 321.324219 281.816406 319.464844 C 284.300781 317.605469 286.738281 315.683594 289.128906 313.703125 C 291.519531 311.726562 293.859375 309.6875 296.148438 307.59375 C 298.441406 305.5 300.679688 303.351562 302.863281 301.148438 C 305.046875 298.941406 307.175781 296.6875 309.25 294.378906 C 311.324219 292.070312 313.339844 289.710938 315.296875 287.304688 C 317.257812 284.894531 319.15625 282.441406 320.992188 279.941406 C 322.832031 277.441406 324.605469 274.894531 326.316406 272.308594 C 328.03125 269.71875 329.679688 267.09375 331.261719 264.421875 C 332.847656 261.753906 334.363281 259.046875 335.816406 256.304688 C 337.265625 253.5625 338.648438 250.785156 339.964844 247.972656 C 341.277344 245.164062 342.523438 242.320312 343.699219 239.449219 C 344.871094 236.574219 345.976562 233.675781 347.007812 230.75 C 348.042969 227.824219 349.003906 224.875 349.890625 221.898438 C 350.777344 218.925781 351.59375 215.933594 352.332031 212.917969 C 353.074219 209.90625 353.742188 206.875 354.332031 203.828125 C 354.925781 200.78125 355.441406 197.722656 355.882812 194.652344 C 356.324219 191.582031 356.691406 188.5 356.984375 185.410156 C 357.273438 182.320312 357.488281 179.226562 357.628906 176.125 C 357.765625 173.023438 357.828125 169.921875 357.816406 166.820312 C 357.800781 163.714844 357.710938 160.613281 357.546875 157.515625 C 357.378906 154.417969 357.140625 151.324219 356.820312 148.238281 Z M 356.820312 148.238281 "/></g><g clip-rule="nonzero" clip-path="url(#e23004d1ad)"><path style=" stroke:none;fill-rule:nonzero;fill:#434960;fill-opacity:1;" d="M 230.28125 137.183594 C 230.28125 138.628906 230.207031 140.074219 230.0625 141.515625 C 229.917969 142.957031 229.703125 144.386719 229.414062 145.804688 C 229.125 147.222656 228.765625 148.625 228.339844 150.011719 C 227.910156 151.398438 227.414062 152.757812 226.847656 154.09375 C 226.285156 155.433594 225.652344 156.738281 224.957031 158.015625 C 224.261719 159.292969 223.503906 160.53125 222.683594 161.734375 C 221.863281 162.9375 220.984375 164.101562 220.046875 165.21875 C 219.109375 166.335938 218.121094 167.410156 217.078125 168.433594 C 216.03125 169.457031 214.941406 170.425781 213.800781 171.34375 C 212.65625 172.261719 211.472656 173.125 210.246094 173.929688 C 209.019531 174.734375 207.753906 175.476562 206.453125 176.15625 C 205.148438 176.839844 203.816406 177.457031 202.453125 178.011719 C 201.089844 178.566406 199.699219 179.054688 198.289062 179.472656 C 196.875 179.894531 195.445312 180.246094 193.996094 180.527344 C 192.546875 180.808594 191.089844 181.023438 189.621094 181.164062 C 188.152344 181.304688 186.679688 181.375 185.203125 181.375 C 183.726562 181.375 182.253906 181.304688 180.785156 181.164062 C 179.3125 181.023438 177.855469 180.808594 176.40625 180.527344 C 174.960938 180.246094 173.527344 179.894531 172.117188 179.472656 C 170.703125 179.054688 169.316406 178.566406 167.949219 178.011719 C 166.585938 177.457031 165.253906 176.839844 163.953125 176.15625 C 162.648438 175.476562 161.386719 174.734375 160.15625 173.929688 C 158.929688 173.125 157.746094 172.261719 156.605469 171.34375 C 155.464844 170.425781 154.371094 169.457031 153.328125 168.433594 C 152.28125 167.410156 151.292969 166.335938 150.355469 165.21875 C 149.417969 164.101562 148.539062 162.9375 147.71875 161.734375 C 146.898438 160.53125 146.140625 159.292969 145.445312 158.015625 C 144.75 156.738281 144.121094 155.433594 143.554688 154.09375 C 142.988281 152.757812 142.492188 151.398438 142.066406 150.011719 C 141.636719 148.625 141.277344 147.222656 140.988281 145.804688 C 140.703125 144.386719 140.484375 142.957031 140.339844 141.515625 C 140.195312 140.074219 140.125 138.628906 140.125 137.183594 C 140.125 135.734375 140.195312 134.292969 140.339844 132.851562 C 140.484375 131.410156 140.703125 129.980469 140.988281 128.5625 C 141.277344 127.140625 141.636719 125.738281 142.066406 124.355469 C 142.492188 122.96875 142.988281 121.609375 143.554688 120.269531 C 144.121094 118.933594 144.75 117.628906 145.445312 116.351562 C 146.140625 115.074219 146.898438 113.835938 147.71875 112.632812 C 148.539062 111.425781 149.417969 110.265625 150.355469 109.148438 C 151.292969 108.027344 152.28125 106.957031 153.328125 105.933594 C 154.371094 104.910156 155.464844 103.941406 156.605469 103.023438 C 157.746094 102.101562 158.929688 101.242188 160.15625 100.4375 C 161.386719 99.632812 162.648438 98.890625 163.953125 98.207031 C 165.253906 97.527344 166.585938 96.90625 167.949219 96.355469 C 169.316406 95.800781 170.703125 95.3125 172.117188 94.894531 C 173.527344 94.472656 174.960938 94.121094 176.40625 93.839844 C 177.855469 93.558594 179.3125 93.34375 180.785156 93.203125 C 182.253906 93.0625 183.726562 92.992188 185.203125 92.992188 C 186.679688 92.992188 188.152344 93.0625 189.621094 93.203125 C 191.089844 93.34375 192.546875 93.558594 193.996094 93.839844 C 195.445312 94.121094 196.875 94.472656 198.289062 94.894531 C 199.699219 95.3125 201.089844 95.800781 202.453125 96.355469 C 203.816406 96.90625 205.148438 97.527344 206.453125 98.207031 C 207.753906 98.890625 209.019531 99.632812 210.246094 100.4375 C 211.472656 101.242188 212.65625 102.101562 213.800781 103.023438 C 214.941406 103.941406 216.03125 104.910156 217.078125 105.933594 C 218.121094 106.957031 219.109375 108.027344 220.046875 109.148438 C 220.984375 110.265625 221.863281 111.425781 222.683594 112.632812 C 223.503906 113.835938 224.261719 115.074219 224.957031 116.351562 C 225.652344 117.628906 226.285156 118.933594 226.847656 120.269531 C 227.414062 121.609375 227.910156 122.96875 228.339844 124.355469 C 228.765625 125.738281 229.125 127.140625 229.414062 128.5625 C 229.703125 129.980469 229.917969 131.410156 230.0625 132.851562 C 230.207031 134.292969 230.28125 135.734375 230.28125 137.183594 Z M 230.28125 137.183594 "/></g></g></svg>